<?xml version="1.0" standalone="no"?>
<!DOCTYPE svg PUBLIC "-//W3C//DTD SVG 20010904//EN"
 "http://www.w3.org/TR/2001/REC-SVG-20010904/DTD/svg10.dtd">
<svg version="1.0" xmlns="http://www.w3.org/2000/svg"
 width="793.000000pt" height="250.000000pt" viewBox="0 0 793.000000 250.000000"
 preserveAspectRatio="xMidYMid meet">

<g transform="translate(0.000000,250.000000) scale(0.100000,-0.100000)"
fill="#000000" stroke="none">
<path d="M1318 2153 c-22 -6 -28 -27 -36 -131 l-7 -87 -84 -43 c-78 -39 -121
-47 -121 -21 0 5 -7 9 -15 9 -7 0 -18 6 -22 13 -15 24 -80 67 -101 67 -25 0
-179 -171 -189 -208 -7 -29 6 -54 62 -117 50 -55 53 -72 28 -149 -35 -108 -38
-113 -89 -120 -26 -3 -61 -6 -78 -6 -17 0 -40 -7 -50 -15 -18 -13 -19 -24 -12
-157 8 -174 7 -172 131 -183 l85 -7 44 -91 45 -92 -37 -53 c-68 -97 -74 -109
-63 -130 8 -15 68 -76 165 -168 13 -12 52 -34 61 -34 3 0 35 27 70 60 35 33
71 60 78 60 8 0 36 -11 63 -25 27 -14 56 -25 65 -25 41 0 60 -32 73 -127 7
-51 16 -96 20 -100 4 -5 67 -8 139 -9 174 -1 177 1 177 104 0 42 3 86 6 97 3
13 30 31 75 52 38 17 69 38 69 45 0 19 -109 153 -123 151 -7 -1 -32 -10 -57
-19 -34 -14 -74 -18 -165 -19 -105 0 -128 3 -180 25 -78 32 -117 58 -184 122
-109 106 -159 219 -168 379 -6 112 6 179 49 269 37 78 138 182 215 222 111 59
263 71 390 33 26 -8 48 -13 48 -12 1 1 19 27 41 57 60 84 71 109 54 121 -12 7
-84 36 -136 53 -11 4 -34 121 -34 170 0 15 -8 30 -19 36 -19 10 -248 12 -283
3z"/>
<path d="M5320 2102 c-22 -17 -22 -19 -6 -50 9 -17 16 -40 16 -50 0 -42 -22
-47 -262 -53 -150 -4 -233 -10 -241 -18 -7 -7 -8 -19 -1 -38 l10 -28 114 3
c157 4 184 -5 145 -48 -20 -22 -8 -57 25 -68 31 -11 42 -6 58 24 9 16 8 26 -4
43 -25 36 -3 51 75 51 130 1 192 60 170 162 -10 44 -43 88 -65 88 -6 0 -22 -8
-34 -18z"/>
<path d="M4355 2089 c-56 -17 -70 -35 -70 -88 0 -40 5 -53 25 -69 40 -34 101
-38 155 -12 26 13 49 29 52 36 14 37 68 2 107 -69 75 -137 58 -285 -32 -287
-33 0 -60 16 -76 48 -14 27 -22 29 -84 23 -7 0 -18 -14 -23 -31 -16 -45 -102
-65 -147 -34 -17 12 -22 24 -20 47 4 41 39 49 73 17 29 -28 59 -23 63 10 4 36
-19 62 -64 69 -106 18 -164 -39 -143 -141 7 -32 18 -49 43 -66 36 -25 128 -40
148 -25 15 11 94 43 121 48 9 2 17 -2 17 -8 0 -18 81 -40 116 -32 91 20 143
71 152 151 10 92 -31 231 -90 307 -69 87 -221 137 -323 106z m93 -83 c4 -21
-13 -36 -43 -36 -31 0 -46 19 -34 42 14 26 72 21 77 -6z"/>
<path d="M6157 2085 c-45 -15 -73 -39 -90 -74 -12 -25 -17 -26 -117 -32 -58
-4 -162 -7 -231 -8 -172 -1 -216 -8 -223 -34 -3 -11 0 -29 6 -40 10 -19 18
-19 125 -14 159 8 178 3 235 -54 45 -45 48 -51 48 -102 0 -61 -11 -77 -54 -77
-24 0 -46 14 -95 59 -72 67 -105 78 -184 60 -49 -10 -54 -14 -70 -54 -22 -53
-19 -94 11 -135 18 -24 28 -29 45 -24 40 11 49 27 36 61 -13 39 2 73 33 73 11
0 41 -21 67 -48 68 -70 113 -88 194 -77 41 6 58 14 83 42 17 19 34 49 37 67 8
50 -10 125 -39 163 -32 42 -23 56 32 51 33 -3 39 -7 46 -33 11 -44 56 -83 98
-85 69 -4 89 0 119 26 27 22 31 33 31 73 0 58 -22 85 -83 102 -56 16 -65 25
-45 45 10 10 34 16 66 17 43 0 52 4 63 24 11 20 11 26 -1 33 -21 13 -99 10
-143 -5z m34 -195 c23 -13 25 -55 3 -64 -18 -7 -50 8 -57 26 -5 16 10 48 24
48 6 0 19 -5 30 -10z"/>
<path d="M2371 2019 c-26 -24 -34 -39 -34 -65 0 -47 21 -82 54 -89 39 -9 43
-30 10 -62 -35 -35 -46 -73 -26 -99 20 -26 18 -48 -5 -69 -14 -13 -20 -31 -20
-63 0 -38 5 -50 34 -78 28 -27 43 -33 100 -39 117 -13 244 19 290 72 59 67 40
175 -45 254 -27 24 -42 50 -51 85 -7 27 -18 55 -25 62 -7 7 -13 18 -13 23 0
18 -46 61 -84 80 -25 12 -61 19 -96 19 -48 0 -60 -4 -89 -31z m136 -50 c11
-11 6 -49 -6 -49 -3 0 -16 -3 -28 -6 -24 -7 -49 26 -39 52 6 16 57 19 73 3z
m83 -104 c0 -18 -37 -38 -56 -31 -12 4 -12 10 -4 26 13 24 60 28 60 5z m-16
-108 c16 -12 16 -13 -1 -28 -22 -19 -101 -49 -130 -49 -12 0 -24 -6 -26 -12
-3 -8 -6 -6 -6 4 -1 10 12 24 28 33 16 8 32 24 36 34 4 13 17 21 38 24 18 2
35 5 38 5 3 1 13 -4 23 -11z m124 -69 c31 -31 6 -97 -49 -127 -52 -29 -160
-34 -186 -8 -27 27 -6 49 71 72 36 11 81 32 99 47 36 30 48 33 65 16z"/>
<path d="M3760 2010 c-32 -8 -84 -53 -107 -94 -8 -15 -42 -18 -298 -27 -159
-5 -290 -10 -291 -12 -4 -4 -6 -31 -5 -53 1 -14 10 -24 26 -28 30 -8 31 -16 5
-58 -22 -36 -27 -119 -11 -176 11 -38 52 -74 95 -84 31 -7 99 11 149 38 26 15
30 14 48 -2 31 -28 143 -31 189 -6 53 29 74 109 49 191 -6 20 -14 48 -19 64
-8 26 8 57 29 57 11 0 36 -31 52 -64 8 -16 26 -38 40 -49 31 -22 119 -36 119
-18 0 6 6 11 14 11 36 0 61 103 36 151 -12 22 -60 49 -88 49 -24 0 -35 23 -19
39 6 6 25 11 42 11 45 0 73 10 80 28 14 36 -52 51 -135 32z m49 -199 c24 -15
-2 -61 -33 -61 -32 0 -53 34 -35 56 13 16 47 18 68 5z m-379 -11 c21 -11 17
-40 -6 -40 -21 0 -44 -42 -44 -81 0 -39 -11 -49 -56 -49 -16 0 -28 -9 -39 -30
-11 -21 -25 -31 -49 -36 -43 -7 -54 -1 -72 41 -11 28 -11 40 1 82 19 64 57 99
120 111 69 13 123 14 145 2z m78 -103 c2 -9 -4 -20 -13 -23 -20 -8 -50 19 -40
36 10 17 49 8 53 -13z m14 -90 c9 -15 -12 -33 -48 -40 -37 -7 -74 15 -74 44 0
19 4 20 58 13 31 -4 60 -11 64 -17z"/>
<path d="M5345 1824 c-41 -21 -46 -33 -29 -67 9 -16 13 -35 10 -43 -6 -15 -36
-20 -36 -6 0 13 -36 52 -47 52 -6 0 -16 -7 -23 -15 -10 -12 -8 -21 10 -50 18
-29 20 -39 10 -48 -9 -9 -18 -5 -39 21 -20 23 -36 32 -59 32 -31 0 -38 -5 -79
-54 -18 -21 -32 -26 -65 -26 -49 0 -60 6 -77 38 -10 18 -9 25 3 37 20 20 40
19 61 -5 24 -26 54 -25 64 2 26 70 -71 113 -159 70 -48 -23 -61 -54 -49 -117
10 -59 42 -90 99 -99 48 -8 130 3 150 19 30 25 58 26 100 5 23 -12 60 -21 83
-22 23 0 52 -6 64 -14 12 -8 28 -14 36 -14 17 0 34 36 36 75 1 16 6 34 11 39
22 22 1 163 -29 190 -15 14 -20 14 -46 0z"/>
<path d="M1895 1578 c-9 -21 -17 -23 -100 -25 -92 -1 -202 -19 -211 -34 -3 -5
-15 -9 -27 -9 -30 0 -84 -20 -137 -51 -25 -14 -53 -29 -62 -32 -55 -20 -268
-201 -268 -229 1 -21 158 -133 230 -163 36 -15 72 -30 80 -34 8 -4 47 -15 85
-25 128 -32 147 -37 142 -42 -3 -3 -35 -7 -73 -9 l-67 -4 -14 -41 c-8 -23 -12
-47 -9 -53 2 -7 5 -4 5 5 1 21 22 27 126 32 122 7 230 34 340 86 33 16 70 31
83 35 12 3 22 11 22 16 0 5 6 9 13 9 6 0 24 10 39 23 14 12 53 41 85 65 33 23
74 58 93 77 l34 35 -37 35 c-20 19 -40 35 -43 35 -3 0 -29 16 -58 35 -29 19
-57 35 -61 35 -4 0 -38 15 -75 34 -78 40 -154 63 -225 70 -110 10 -106 36 7
36 74 0 77 2 94 68 12 45 5 57 -11 20z m27 -197 c55 -23 178 -144 178 -174 0
-32 -46 -86 -120 -141 -56 -41 -90 -59 -97 -52 -3 3 9 33 27 67 29 57 32 69
28 128 -5 68 -21 110 -57 148 -22 23 -27 43 -12 43 5 0 29 -8 53 -19z m-442
-2 c0 -5 -9 -31 -21 -56 -22 -49 -31 -199 -12 -211 10 -7 63 -88 63 -97 0 -16
-44 1 -105 41 -73 47 -135 117 -135 151 0 27 72 107 134 149 52 35 76 42 76
23z m174 -21 c-5 -7 -18 -21 -29 -30 -19 -15 -21 -23 -15 -70 9 -64 4 -75 -21
-52 -14 13 -19 31 -19 74 0 70 5 76 83 89 5 0 5 -5 1 -11z m120 -6 c4 -11 17
-24 29 -31 13 -7 28 -21 35 -32 10 -16 10 -19 -3 -19 -9 0 -18 6 -21 13 -3 8
-10 14 -17 15 -7 1 -29 5 -49 8 -30 5 -43 1 -72 -21 -32 -24 -37 -25 -42 -10
-8 19 9 39 63 70 47 29 70 30 77 7z m14 -88 c26 -14 53 -31 60 -36 17 -14 15
-53 -3 -68 -8 -7 -12 -16 -9 -21 3 -5 0 -17 -5 -26 -6 -10 -11 -13 -12 -8 -1
6 -2 17 -3 25 -2 8 -3 29 -4 47 -2 27 -9 36 -51 59 -32 17 -48 31 -44 40 7 19
17 18 71 -12z m-245 -29 c-6 -18 49 -72 79 -77 27 -4 35 -26 13 -34 -22 -9
-91 26 -106 52 -12 24 -3 88 11 79 5 -3 7 -12 3 -20z m231 -41 c18 -18 22
-104 6 -135 -11 -20 -45 -25 -69 -10 -11 7 -8 13 13 26 23 15 26 24 26 76 0
33 2 59 4 59 3 0 12 -7 20 -16z m-47 -71 c5 -14 -79 -73 -104 -73 -19 0 -53
32 -53 50 0 13 4 13 33 -1 20 -9 31 -7 63 14 40 27 55 29 61 10z"/>
<path d="M2874 1535 c-18 -13 -18 -15 -1 -45 24 -45 22 -56 -22 -95 -47 -43
-60 -98 -35 -150 18 -40 31 -52 59 -57 11 -1 23 -7 26 -11 11 -15 126 -9 163
8 51 24 63 42 43 62 -15 15 -20 15 -68 0 -69 -23 -131 -22 -152 1 -21 23 -22
46 -3 61 11 10 16 8 20 -7 5 -14 19 -22 50 -26 69 -11 116 18 116 70 0 41 -26
71 -70 82 -30 7 -37 15 -52 57 -23 64 -40 76 -74 50z m124 -179 c4 -21 -14
-37 -35 -29 -14 5 -18 35 -6 47 12 12 38 1 41 -18z"/>
<path d="M7303 1262 c-8 -5 -11 -43 -10 -122 1 -70 -2 -116 -8 -117 -5 0 -35
45 -65 102 -30 56 -61 110 -69 119 -21 25 -93 21 -119 -7 -21 -22 -22 -33 -22
-169 0 -80 3 -193 7 -252 l6 -107 61 3 61 3 0 139 c0 152 9 176 43 109 51
-102 110 -202 138 -230 22 -23 72 -16 90 12 14 21 17 50 15 163 0 75 -4 188
-7 250 l-7 112 -51 0 c-28 0 -56 -4 -63 -8z"/>
<path d="M6587 1235 c-78 -29 -123 -71 -163 -154 -23 -48 -26 -64 -22 -130 4
-62 10 -85 34 -122 33 -53 97 -105 152 -125 109 -39 238 7 306 109 62 93 65
223 8 310 -34 53 -54 70 -118 102 -58 29 -135 33 -197 10z m178 -155 c53 -50
57 -151 9 -204 -67 -72 -176 -60 -219 24 -28 54 -13 143 31 182 40 35 141 33
179 -2z"/>
<path d="M5935 1220 c-60 -7 -84 -19 -119 -61 -21 -24 -26 -41 -26 -83 0 -66
26 -103 123 -170 38 -26 71 -54 74 -62 11 -30 -17 -44 -86 -44 -89 0 -103 -11
-99 -75 l3 -50 87 -3 c108 -3 159 10 204 51 38 36 49 86 33 148 -10 39 -92
124 -146 153 -30 15 -52 51 -39 63 3 3 35 6 71 7 74 1 79 6 73 87 l-3 44 -50
0 c-27 0 -72 -2 -100 -5z"/>
<path d="M6197 1223 c-4 -4 -5 -63 -2 -132 7 -155 14 -347 15 -384 0 -28 0
-28 63 -25 l62 3 0 170 c0 94 -2 215 -5 270 l-5 100 -60 3 c-34 2 -64 0 -68
-5z"/>
<path d="M5635 1211 l-50 -6 4 -178 c1 -97 6 -219 10 -270 l6 -92 53 -3 c77
-4 81 2 75 116 -2 53 -8 173 -11 267 -8 189 -1 176 -87 166z"/>
<path d="M5413 1202 c-7 -4 -15 -28 -19 -52 -12 -80 -52 -261 -59 -268 -7 -8
-24 16 -29 43 -17 82 -48 234 -52 253 -4 20 -10 22 -69 22 -35 0 -66 -4 -70
-10 -11 -18 106 -450 135 -498 32 -52 117 -60 163 -14 19 20 106 360 123 486
l7 46 -59 0 c-33 0 -64 -4 -71 -8z"/>
<path d="M4228 1173 c-9 -2 -19 -10 -21 -17 -8 -19 14 -509 22 -518 10 -11 81
-13 110 -3 22 7 23 10 17 69 -3 33 -8 151 -12 261 -4 129 -11 203 -18 207 -12
8 -70 9 -98 1z"/>
<path d="M4432 1167 c-17 -20 2 -503 20 -524 7 -9 28 -13 62 -11 l51 3 0 200
0 200 43 3 c38 3 47 -1 77 -31 35 -35 40 -54 36 -127 -3 -41 -38 -82 -90 -108
-35 -16 -36 -19 -32 -67 1 -27 5 -53 7 -57 3 -5 22 -8 42 -8 72 0 173 78 203
157 18 47 13 176 -9 225 -23 52 -70 101 -126 130 -54 29 -264 40 -284 15z"/>
<path d="M3941 1148 c-12 -12 -23 -29 -25 -37 -12 -41 -26 -140 -26 -183 0
-33 -4 -48 -13 -48 -13 0 -24 35 -48 160 -16 83 -49 120 -106 120 -85 0 -96
-31 -113 -310 -6 -96 -13 -186 -16 -198 -3 -13 0 -30 7 -38 15 -18 93 -18 107
-1 6 7 14 75 18 149 6 126 15 171 28 157 3 -3 15 -50 26 -105 11 -54 25 -116
32 -137 21 -67 81 -89 112 -42 16 25 20 43 47 208 11 70 22 97 35 85 2 -3 9
-54 15 -114 5 -60 12 -128 15 -151 l5 -43 55 0 c40 0 56 4 61 16 3 8 0 57 -6
107 -6 51 -16 128 -21 172 -23 176 -32 215 -58 236 -35 27 -105 26 -131 -3z"/>
<path d="M3395 1136 c-16 -11 -17 -22 -12 -83 7 -81 0 -93 -54 -93 -44 0 -49
9 -49 93 0 84 -5 89 -76 85 l-59 -3 3 -220 c4 -225 8 -315 17 -323 8 -9 109
-2 119 8 5 5 9 49 8 97 -1 118 1 123 49 123 23 0 42 -5 44 -12 5 -13 14 -128
15 -180 0 -28 1 -28 64 -28 36 0 67 4 70 9 10 16 -17 526 -28 533 -18 13 -91
9 -111 -6z"/>
<path d="M2931 1124 c-90 -28 -143 -81 -176 -178 -38 -107 6 -251 98 -320 39
-30 139 -52 190 -42 l37 7 0 64 0 65 -45 0 c-25 0 -61 6 -80 14 -77 33 -95
165 -31 225 15 14 49 28 83 35 l58 12 3 54 c3 43 -1 57 -14 67 -22 16 -66 15
-123 -3z"/>
<path d="M2460 1113 c-65 -13 -110 -73 -110 -149 0 -64 26 -102 110 -158 46
-31 72 -56 76 -72 4 -14 5 -27 3 -29 -2 -2 -38 -5 -80 -7 -42 -3 -81 -8 -87
-12 -6 -4 -10 -26 -7 -54 2 -26 4 -53 4 -61 1 -11 20 -12 94 -8 50 3 110 10
131 17 80 24 120 102 96 190 -13 49 -51 88 -134 140 -78 49 -74 64 17 76 l72
9 3 39 c2 22 1 50 -2 63 -6 22 -10 23 -84 22 -42 -1 -88 -4 -102 -6z"/>
<path d="M7237 523 c-8 -19 6 -124 16 -120 12 4 18 75 10 110 -4 17 -19 23
-26 10z"/>
<path d="M7004 507 c-9 -25 0 -100 13 -104 9 -3 12 12 12 51 -1 55 -14 82 -25
53z"/>
<path d="M7080 450 c0 -33 4 -60 10 -60 6 0 10 27 10 60 0 33 -4 60 -10 60 -6
0 -10 -27 -10 -60z"/>
<path d="M7410 492 c0 -10 11 -25 25 -32 14 -7 25 -19 25 -26 0 -7 5 -16 10
-19 6 -4 10 5 10 20 0 18 -7 28 -25 35 -14 5 -25 16 -25 25 0 8 -4 15 -10 15
-5 0 -10 -8 -10 -18z"/>
<path d="M6650 435 c0 -36 4 -65 9 -65 12 0 17 34 12 88 -5 66 -21 49 -21 -23z"/>
<path d="M6799 484 c-20 -24 -14 -102 7 -81 11 10 22 87 14 92 -4 3 -13 -2
-21 -11z"/>
<path d="M6240 480 c-12 -8 -10 -15 16 -42 18 -18 37 -43 43 -56 7 -12 16 -20
22 -17 16 10 10 37 -13 59 -13 12 -30 31 -38 43 -11 17 -19 20 -30 13z"/>
<path d="M6090 415 c0 -37 4 -65 10 -65 6 0 10 28 10 65 0 37 -4 65 -10 65 -6
0 -10 -28 -10 -65z"/>
<path d="M6455 470 c-10 -16 5 -50 21 -50 8 0 14 -4 14 -10 0 -5 7 -10 15 -10
9 0 12 -6 8 -17 -5 -14 -3 -15 7 -7 17 17 3 53 -26 64 -15 6 -22 15 -18 25 7
17 -11 21 -21 5z"/>
<path d="M5542 462 c-8 -6 -8 -23 1 -70 14 -74 27 -81 27 -14 0 26 5 53 11 59
14 14 -21 36 -39 25z"/>
<path d="M5714 435 c-14 -21 -14 -30 -4 -55 16 -39 30 -38 30 3 0 17 3 42 6
55 8 30 -11 28 -32 -3z"/>
<path d="M5800 460 c-6 -37 -3 -119 5 -117 21 7 28 63 11 93 -8 16 -16 27 -16
24z"/>
<path d="M5007 443 c-11 -10 -8 -121 3 -128 20 -12 25 4 22 69 -3 62 -9 75
-25 59z"/>
<path d="M4590 437 c0 -1 9 -20 20 -42 11 -22 20 -45 20 -52 0 -14 39 -38 48
-28 3 3 1 15 -6 25 -7 11 -12 24 -12 30 0 18 -43 70 -57 70 -7 0 -13 -1 -13
-3z"/>
<path d="M4807 383 c5 -57 23 -99 23 -56 0 12 5 25 10 28 6 4 4 12 -5 21 -9
10 -13 24 -9 40 5 18 2 24 -9 24 -13 0 -15 -10 -10 -57z"/>
<path d="M5193 433 c-23 -8 -14 -43 13 -53 14 -6 28 -19 31 -30 7 -26 23 -26
23 -1 0 30 -11 51 -26 51 -8 0 -14 6 -14 14 0 18 -11 25 -27 19z"/>
<path d="M6874 426 c-10 -27 2 -43 14 -19 8 14 9 24 2 28 -6 3 -13 -1 -16 -9z"/>
<path d="M4266 422 c-2 -4 -1 -32 3 -62 6 -51 8 -53 19 -32 9 15 10 28 3 40
-6 10 -7 28 -4 40 5 21 -10 31 -21 14z"/>
<path d="M4449 426 c-10 -10 7 -120 19 -124 9 -3 12 14 12 62 0 48 -4 66 -13
66 -8 0 -16 -2 -18 -4z"/>
<path d="M4314 404 c3 -9 6 -18 6 -20 0 -2 5 -4 10 -4 6 0 10 9 10 20 0 12 -7
20 -16 20 -11 0 -14 -5 -10 -16z"/>
</g>
</svg>
